<svg xmlns="http://www.w3.org/2000/svg" shape-rendering="geometricPrecision" text-rendering="geometricPrecision" image-rendering="optimizeQuality" fill-rule="evenodd" clip-rule="evenodd" viewBox="0 0 470 511.62"><path fill-rule="nonzero" d="M237.39 0c6.89 0 12.52 5.63 12.52 12.52v.89c21.82 3.05 41.6 13.09 56.59 27.78 17.66 17.31 28.71 41.06 28.71 67.47l-.84 32.61 6.46 46.76a8.788 8.788 0 0 1-3.01 8.21l.8.94 1.48 1.77-6.52 8.63-.12.31-.03.1c-1.99 5.08-4.66 9.7-7.75 13.11-2.59 2.77-5.5 4.76-8.66 5.54-.61 1.96-1.29 3.98-1.78 5.97-3.52 11.87-6.29 21.21-13.61 30.49-1.6 2.02-3.3 3.97-5.11 5.82a63.964 63.964 0 0 1-3.84 3.73c.21 2.25.19 21.99.15 27.62l-2.16.52c-4.73 16.71-18.88 27.55-35.55 32.66-9.49 2.91-19.82 3.97-29.67 3.21-9.92-.76-19.41-3.39-27.13-7.82-10.84-6.23-18.26-15.99-18.79-29.19v-.91l-2.35-.64v-25.34l.05-2.65c-6.75-6.11-12.28-14.22-16-22.47-2.59-5.75-4.65-11.97-7.04-19.01l-1.24-3.66c-2.7-.35-5.22-1.6-7.49-3.45-2.85-2.34-5.3-5.75-7.29-9.69-1.34-2.64-3.99-6.6-4.95-14.83-2.88-1.76-4.61-5.12-4.12-8.68l6.5-46.81-1.82-28.65c-.13-2.08-.2-3.98-.2-5.68 0-25.52 10.98-48.44 28.35-65.35 16.49-16.07 38.81-26.71 62.94-28.96v-.35C224.87 5.63 230.5 0 237.39 0z"/><path fill-rule="nonzero" d="M246.53 328.75c14.61-3.26 27.88-11.41 34.35-23.94 2.08-4.89 7.31-7.9 12.77-6.95 8.61 1.51 13.85 2.36 19.14 3.2 62.87 10.13 122.52 19.75 139 99.61l17.79 96.17c.27.99.42 2.02.42 3.09 0 6.46-5.24 11.69-11.69 11.69H11.66c-.61-.03-1.24-.08-1.87-.18-6.35-1.03-10.67-7.02-9.64-13.38l13.28-81.03C32.2 321.59 81.97 311.71 154.07 297.4c7.59-1.5 15.39-3.05 21.48-4.33 6.23-1.28 12.36 2.67 13.74 8.9 2.45 10.98 9.5 18.63 18.64 23.14 5.49 2.71 11.71 4.35 18.18 4.96 6.73.63 13.7.17 20.42-1.32z"/><path fill="#5E86C3" d="M291.64 309.37c-8.24 16.71-25.43 27.27-44.05 31.05v54.26h-25.2l-.02-53.32c-21-2.77-39.52-14.73-44.45-36.87C98.72 321.2 43.93 322.45 24.9 419.27l-4.53 27.57h96.58v-49.05c0-3 2.44-5.44 5.44-5.44 3 0 5.44 2.44 5.44 5.44v102.14h213.76V397.79c0-3 2.44-5.44 5.44-5.44 3 0 5.43 2.44 5.43 5.44v49.05h96.04l-7.99-43.23c-16.28-80.43-83.27-82.75-148.87-94.24zM16.08 473l-4.42 26.93h105.29V473H16.08zm336.38 26.93h105.85L453.33 473H352.46v26.93z"/><path fill="#F0D0B4" d="M283.79 274.6c-32.68 25.43-64.99 23.01-97 .22l-.15 25.33c3.38 39.28 87.55 41.49 97.15 1.16V274.6zm46.39-74.68c-.82-.97-1.63-1.93-2.46-2.88l-.56-.36c-21.98-15.48-57.08-23.2-92.34-23.2-34.24 0-68.17 7.27-89.9 21.73l3.04 13.46 10.02 10.5 6.2 6.68c17.43 72.93 124.06 77.51 142.72 0l10.97-9.54 12.31-16.39z"/><path fill="#FF826E" d="m332.2 189.52-5.84-42.3c-.65-.03-1.3-.18-1.93-.45-31.94-13.93-62.73-19.64-92.53-18.99-29.82.66-58.77 7.71-86.95 19.29-.44.18-.89.3-1.34.36l-5.84 42.09c46.22-32.98 147.34-33.17 194.43 0zm-6.42-54.05.64-24.57c1.3-49.78-40.74-89.73-90.54-89.73h-1.41c-50.58 0-95.18 40.67-91.96 91.15l1.49 23.36c28.36-11.3 57.53-18.14 87.69-18.8 30.38-.67 61.7 4.94 94.09 18.59zm-90.8-76.56c12.12 0 21.95 9.83 21.95 21.95 0 12.11-9.83 21.93-21.95 21.93s-21.94-9.82-21.94-21.93c0-12.12 9.82-21.95 21.94-21.95z"/></svg>